<!DOCTYPE svg PUBLIC "-//W3C//DTD SVG 20010904//EN" "http://www.w3.org/TR/2001/REC-SVG-20010904/DTD/svg10.dtd">
<svg version="1.0" xmlns="http://www.w3.org/2000/svg" width="480px" height="480px" viewBox="0 0 4800 4800" preserveAspectRatio="xMidYMid meet">
<g id="layer101" fill="#194f46" stroke="none">
 <path d="M486 3898 c-27 -140 -37 -299 -25 -432 11 -143 6 -211 -28 -366 -37 -163 -35 -195 20 -315 57 -125 71 -180 65 -258 -7 -80 -34 -147 -142 -345 -85 -156 -155 -324 -157 -380 -5 -90 -19 127 -25 374 l-7 292 49 98 c44 87 49 106 52 174 3 56 -2 102 -18 166 -21 85 -84 259 -101 278 -4 5 -11 -8 -15 -29 -3 -20 -34 -78 -67 -128 -78 -120 -91 -157 -85 -260 4 -70 10 -95 46 -171 l42 -89 0 -411 c0 -367 2 -419 19 -482 48 -186 134 -290 306 -370 142 -66 306 -94 551 -94 205 0 269 12 479 93 l160 62 120 -1 c109 0 154 -7 495 -77 478 -98 539 -107 805 -114 320 -8 527 16 772 92 61 19 116 35 122 35 5 0 28 -30 50 -67 21 -38 52 -80 68 -95 69 -66 199 -82 401 -48 89 15 150 21 175 16 69 -13 130 -85 156 -184 21 -75 34 -50 29 56 -5 112 -24 161 -85 211 -66 54 -131 72 -293 81 -159 9 -193 19 -210 61 -25 60 19 125 112 167 93 41 135 97 163 217 8 37 32 97 52 134 58 105 143 241 186 299 71 94 59 165 -36 214 -23 11 -54 30 -69 41 -50 37 -123 27 -228 -31 -23 -13 -71 -24 -140 -31 -126 -12 -242 -41 -329 -82 -35 -16 -76 -29 -91 -29 -47 0 -162 66 -255 148 -99 86 -158 158 -200 242 -42 83 -108 181 -151 222 -22 20 -70 51 -107 68 -91 41 -98 58 -107 255 -6 148 -7 151 -49 249 -57 130 -61 181 -27 310 37 141 70 208 127 261 27 25 49 48 49 50 0 3 -81 5 -181 5 l-180 0 -24 -54 c-44 -99 -59 -173 -55 -276 12 -337 -2 -556 -46 -708 -12 -45 -20 -56 -48 -67 -43 -18 -156 -31 -386 -45 -302 -18 -388 -38 -656 -155 -158 -69 -213 -85 -291 -85 -71 0 -114 18 -175 72 -49 45 -118 133 -158 203 -18 32 -70 97 -116 145 -45 48 -89 102 -99 120 -37 72 -38 385 0 545 21 92 74 200 124 254 23 24 41 46 41 48 0 1 -80 3 -179 3 l-178 0 -17 -82z"/>
 </g>

</svg>