<!DOCTYPE svg PUBLIC "-//W3C//DTD SVG 20010904//EN" "http://www.w3.org/TR/2001/REC-SVG-20010904/DTD/svg10.dtd">
<svg version="1.0" xmlns="http://www.w3.org/2000/svg" width="1153px" height="1153px" viewBox="0 0 11530 11530" preserveAspectRatio="xMidYMid meet">
<g id="layer101" fill="#b3b3b3" stroke="none">
 <path d="M710 10930 c0 -5 -9 -10 -20 -10 -22 0 -70 -41 -70 -60 0 -5 -4 -10 -10 -10 -5 0 -10 -25 -10 -55 0 -42 -3 -55 -15 -55 -12 0 -15 -16 -15 -80 0 -47 -4 -80 -10 -80 -6 0 -10 -28 -10 -65 0 -37 -4 -65 -10 -65 -6 0 -10 -33 -10 -80 0 -47 -4 -80 -10 -80 -6 0 -10 -33 -10 -80 0 -64 -3 -80 -15 -80 -12 0 -15 -15 -15 -75 0 -43 -4 -75 -10 -75 -6 0 -10 -33 -10 -80 0 -47 -4 -80 -10 -80 -6 0 -10 -30 -10 -70 0 -40 -4 -70 -10 -70 -6 0 -10 -32 -10 -75 0 -60 -3 -75 -15 -75 -12 0 -15 -16 -15 -80 0 -47 -4 -80 -10 -80 -6 0 -10 -33 -10 -80 0 -47 -4 -80 -10 -80 -6 0 -10 -28 -10 -65 0 -37 -4 -65 -10 -65 -6 0 -10 -33 -10 -80 0 -64 -3 -80 -15 -80 -12 0 -15 -16 -15 -80 0 -47 -4 -80 -10 -80 -6 0 -10 -33 -10 -80 0 -47 -4 -80 -10 -80 -6 0 -10 -32 -10 -75 0 -43 -4 -75 -10 -75 -6 0 -10 -30 -10 -70 0 -56 -3 -70 -15 -70 -12 0 -15 -16 -15 -80 0 -47 -4 -80 -10 -80 -6 0 -10 -42 -10 -106 0 -105 9 -134 39 -134 6 0 11 -9 11 -21 0 -12 13 -34 30 -49 16 -15 30 -33 30 -39 0 -6 5 -11 11 -11 16 0 39 -26 39 -44 0 -9 5 -16 10 -16 6 0 10 -7 10 -15 0 -8 5 -15 10 -15 6 0 10 -9 10 -20 0 -11 5 -20 11 -20 17 0 39 -27 39 -47 0 -10 9 -25 20 -33 11 -8 20 -25 20 -37 0 -14 6 -23 15 -23 8 0 15 -9 15 -20 0 -11 5 -20 10 -20 6 0 10 -11 10 -25 0 -14 5 -25 10 -25 6 0 10 -9 10 -20 0 -11 5 -20 10 -20 6 0 10 -11 10 -25 0 -16 6 -25 15 -25 8 0 15 -9 15 -20 0 -11 5 -20 10 -20 6 0 10 -16 10 -35 0 -19 5 -35 10 -35 6 0 10 -20 10 -45 0 -25 5 -45 10 -45 6 0 10 -25 10 -55 0 -42 3 -55 15 -55 13 0 15 -32 15 -225 0 -193 -2 -225 -15 -225 -12 0 -15 -13 -15 -55 0 -30 -4 -55 -10 -55 -6 0 -10 -27 -10 -60 0 -33 -4 -60 -10 -60 -5 0 -10 -20 -10 -45 0 -25 -4 -45 -10 -45 -5 0 -10 -13 -10 -30 0 -20 -5 -30 -15 -30 -11 0 -15 -12 -15 -45 0 -25 -4 -45 -10 -45 -5 0 -10 -20 -10 -45 0 -25 -4 -45 -10 -45 -5 0 -10 -16 -10 -35 0 -19 -4 -35 -10 -35 -5 0 -10 -20 -10 -45 0 -33 -4 -45 -15 -45 -11 0 -15 -12 -15 -45 0 -25 -4 -45 -10 -45 -5 0 -10 -25 -10 -55 0 -30 -4 -55 -10 -55 -6 0 -10 -27 -10 -60 0 -33 -4 -60 -10 -60 -6 0 -10 -32 -10 -75 0 -60 -3 -75 -15 -75 -13 0 -15 -38 -15 -285 0 -247 2 -285 15 -285 12 0 15 -14 15 -65 0 -37 4 -65 10 -65 6 0 10 -20 10 -45 0 -25 5 -45 10 -45 6 0 10 -20 10 -45 0 -25 5 -45 10 -45 6 0 10 -11 10 -25 0 -16 6 -25 15 -25 10 0 15 -10 15 -30 0 -16 5 -30 10 -30 6 0 10 -5 10 -11 0 -16 -26 -39 -45 -39 -18 0 -65 -43 -65 -60 0 -5 -7 -10 -15 -10 -8 0 -15 -4 -15 -10 0 -5 -8 -10 -18 -10 -10 0 -24 -9 -32 -20 -8 -11 -20 -20 -27 -20 -7 0 -13 -6 -13 -13 0 -7 -9 -19 -20 -27 -11 -8 -20 -22 -20 -32 0 -10 -4 -18 -10 -18 -5 0 -10 -7 -10 -15 0 -8 -5 -15 -10 -15 -19 0 -60 -48 -60 -70 0 -11 -4 -20 -10 -20 -5 0 -10 -9 -10 -20 0 -11 -5 -20 -11 -20 -17 0 -39 -27 -39 -49 0 -12 -4 -21 -10 -21 -5 0 -10 -16 -10 -35 0 -19 -4 -35 -10 -35 -5 0 -10 -13 -10 -30 0 -20 -5 -30 -15 -30 -10 0 -15 -11 -15 -35 0 -19 -4 -35 -10 -35 -6 0 -10 -82 -10 -225 0 -143 4 -225 10 -225 6 0 10 -20 10 -45 0 -33 4 -45 15 -45 10 0 15 -11 15 -35 0 -19 5 -35 10 -35 6 0 10 -16 10 -35 0 -19 5 -35 10 -35 6 0 10 -9 10 -20 0 -11 5 -20 10 -20 6 0 10 -16 10 -35 0 -24 5 -35 15 -35 8 0 15 -9 15 -20 0 -11 5 -20 10 -20 6 0 10 -10 10 -23 0 -12 9 -29 20 -37 11 -8 20 -25 20 -37 0 -14 6 -23 15 -23 8 0 15 -8 15 -18 0 -10 9 -24 20 -32 11 -8 20 -23 20 -33 0 -20 22 -47 39 -47 6 0 11 -9 11 -20 0 -21 61 -90 80 -90 5 0 10 -9 10 -21 0 -12 13 -34 30 -49 16 -15 30 -33 30 -39 0 -6 5 -11 10 -11 14 0 80 -66 80 -80 0 -6 35 -10 90 -10 73 0 90 3 90 15 0 9 9 15 25 15 17 0 25 5 25 18 0 10 9 24 20 32 17 12 20 26 20 90 0 64 -3 78 -20 90 -11 8 -20 25 -20 37 0 13 -4 23 -10 23 -5 0 -10 9 -10 20 0 11 -7 20 -15 20 -9 0 -15 9 -15 25 0 14 -4 25 -10 25 -5 0 -10 16 -10 35 0 19 -4 35 -10 35 -6 0 -10 32 -10 75 0 43 4 75 10 75 6 0 10 11 10 25 0 14 5 25 10 25 6 0 10 9 10 20 0 11 7 20 15 20 8 0 15 5 15 10 0 14 66 80 80 80 5 0 10 5 10 10 0 19 69 80 90 80 11 0 20 5 20 10 0 12 45 60 55 60 10 0 35 28 35 39 0 6 5 11 10 11 6 0 10 7 10 16 0 18 23 44 39 44 6 0 11 11 11 25 0 14 5 25 10 25 6 0 10 16 10 35 0 19 5 35 10 35 6 0 10 20 10 45 0 41 2 45 25 45 16 0 25 -6 25 -15 0 -8 9 -15 20 -15 11 0 20 -4 20 -10 0 -5 10 -10 23 -10 12 0 29 -9 37 -20 8 -11 22 -20 32 -20 10 0 18 -7 18 -15 0 -9 9 -15 25 -15 14 0 25 -4 25 -10 0 -5 16 -10 35 -10 19 0 35 -4 35 -10 0 -5 9 -10 20 -10 11 0 20 -4 20 -10 0 -5 11 -10 25 -10 16 0 25 -6 25 -15 0 -10 10 -15 30 -15 17 0 30 -4 30 -10 0 -5 16 -10 35 -10 19 0 35 -4 35 -10 0 -5 16 -10 35 -10 19 0 35 -4 35 -10 0 -5 16 -10 35 -10 24 0 35 -5 35 -15 0 -11 12 -15 45 -15 25 0 45 -4 45 -10 0 -5 25 -10 55 -10 30 0 55 -4 55 -10 0 -5 25 -10 55 -10 30 0 55 -4 55 -10 0 -6 30 -10 70 -10 56 0 70 -3 70 -15 0 -12 17 -15 90 -15 53 0 90 -4 90 -10 0 -6 47 -10 120 -10 73 0 120 -4 120 -10 0 -6 60 -10 160 -10 100 0 160 -4 160 -10 0 -6 93 -10 260 -10 224 0 260 -2 260 -15 0 -13 49 -15 380 -15 247 0 380 -4 380 -10 0 -6 123 -10 350 -10 227 0 350 -4 350 -10 0 -6 82 -10 225 -10 143 0 225 -4 225 -10 0 -6 58 -10 155 -10 131 0 155 -2 155 -15 0 -13 21 -15 125 -15 77 0 125 -4 125 -10 0 -6 37 -10 90 -10 53 0 90 -4 90 -10 0 -6 33 -10 80 -10 47 0 80 -4 80 -10 0 -6 28 -10 65 -10 51 0 65 -3 65 -15 0 -12 14 -15 70 -15 40 0 70 -4 70 -10 0 -5 20 -10 45 -10 25 0 45 -4 45 -10 0 -5 20 -10 45 -10 25 0 45 -4 45 -10 0 -5 20 -10 45 -10 33 0 45 -4 45 -15 0 -10 10 -15 30 -15 17 0 30 -4 30 -10 0 -5 16 -10 35 -10 19 0 35 -4 35 -10 0 -5 16 -10 35 -10 19 0 35 -4 35 -10 0 -5 9 -10 20 -10 11 0 20 -7 20 -15 0 -10 11 -15 35 -15 19 0 35 -4 35 -10 0 -5 10 -10 23 -10 12 0 29 -9 37 -20 8 -11 22 -20 32 -20 10 0 18 -7 18 -15 0 -8 7 -15 15 -15 8 0 15 -4 15 -10 0 -5 8 -10 18 -10 10 0 24 -9 32 -20 8 -11 20 -20 27 -20 7 0 13 -5 13 -11 0 -6 13 -24 30 -39 16 -15 30 -37 30 -49 0 -12 5 -21 10 -21 19 0 80 -69 80 -90 0 -11 5 -20 10 -20 17 0 60 -47 60 -65 0 -16 23 -45 35 -45 13 0 35 -29 35 -47 0 -10 9 -25 20 -33 11 -8 20 -25 20 -37 0 -13 5 -23 11 -23 16 0 39 -26 39 -44 0 -9 5 -16 10 -16 6 0 10 -7 10 -15 0 -8 5 -15 10 -15 6 0 10 -9 10 -20 0 -11 5 -20 11 -20 16 0 39 -26 39 -45 0 -18 43 -65 60 -65 5 0 10 -10 10 -23 0 -12 9 -29 20 -37 11 -8 20 -23 20 -33 0 -20 22 -47 39 -47 6 0 11 -9 11 -20 0 -11 5 -20 10 -20 6 0 10 -5 10 -10 0 -14 46 -60 60 -60 5 0 10 -11 10 -24 0 -13 6 -26 12 -28 19 -7 -16 -38 -41 -38 -12 0 -21 -4 -21 -10 0 -5 -9 -10 -20 -10 -11 0 -20 -7 -20 -15 0 -8 -7 -15 -15 -15 -8 0 -15 -4 -15 -10 0 -5 -9 -10 -20 -10 -11 0 -20 -4 -20 -10 0 -5 -11 -10 -25 -10 -14 0 -25 -4 -25 -10 0 -5 -9 -10 -20 -10 -11 0 -20 -7 -20 -15 0 -9 -9 -15 -25 -15 -14 0 -25 -4 -25 -10 0 -5 -9 -10 -20 -10 -11 0 -20 -4 -20 -10 0 -5 -11 -10 -25 -10 -14 0 -25 -4 -25 -10 0 -5 -9 -10 -20 -10 -11 0 -20 -7 -20 -15 0 -9 -9 -15 -25 -15 -14 0 -25 -4 -25 -10 0 -5 -9 -10 -20 -10 -11 0 -20 -4 -20 -10 0 -5 -11 -10 -25 -10 -14 0 -25 -4 -25 -10 0 -5 -9 -10 -20 -10 -11 0 -20 -7 -20 -15 0 -9 -9 -15 -25 -15 -14 0 -25 -4 -25 -10 0 -5 -9 -10 -20 -10 -11 0 -20 -4 -20 -10 0 -5 -11 -10 -25 -10 -14 0 -25 -4 -25 -10 0 -5 -9 -10 -20 -10 -11 0 -20 -7 -20 -15 0 -10 -11 -15 -35 -15 -19 0 -35 -4 -35 -10 0 -5 -9 -10 -20 -10 -11 0 -20 -4 -20 -10 0 -5 -11 -10 -25 -10 -14 0 -25 -4 -25 -10 0 -5 -9 -10 -20 -10 -11 0 -20 -7 -20 -15 0 -10 -11 -15 -35 -15 -19 0 -35 -4 -35 -10 0 -5 -11 -10 -25 -10 -14 0 -25 -4 -25 -10 0 -5 -7 -10 -16 -10 -18 0 -44 -23 -44 -39 0 -6 -5 -11 -11 -11 -28 0 -39 -30 -39 -110 0 -76 11 -110 35 -110 8 0 35 -27 35 -35 0 -18 33 -35 69 -35 23 0 41 -4 41 -10 0 -6 30 -10 70 -10 40 0 70 -4 70 -10 0 -6 37 -10 90 -10 73 0 90 -3 90 -15 0 -13 35 -15 255 -15 220 0 255 2 255 15 0 12 17 15 90 15 53 0 90 4 90 10 0 6 30 10 70 10 40 0 70 4 70 10 0 6 20 10 45 10 25 0 45 5 45 10 0 6 20 10 45 10 33 0 45 4 45 15 0 10 11 15 35 15 19 0 35 5 35 10 0 6 14 10 30 10 17 0 30 5 30 10 0 6 16 10 35 10 19 0 35 5 35 10 0 6 16 10 35 10 24 0 35 5 35 15 0 8 9 15 20 15 11 0 20 5 20 10 0 6 16 10 35 10 19 0 35 5 35 10 0 6 11 10 25 10 14 0 25 5 25 10 0 6 9 10 20 10 11 0 20 7 20 15 0 9 9 15 25 15 14 0 25 5 25 10 0 6 9 10 20 10 11 0 20 5 20 10 0 6 11 10 25 10 14 0 25 5 25 10 0 6 9 10 20 10 11 0 20 5 20 11 0 17 27 39 49 39 12 0 21 5 21 10 0 6 9 10 20 10 11 0 20 5 20 10 0 6 7 10 15 10 8 0 15 7 15 15 0 8 8 15 18 15 10 0 24 9 32 20 15 20 60 28 60 10 0 -5 9 -10 20 -10 11 0 20 -4 20 -10 0 -5 11 -10 25 -10 16 0 25 -6 25 -15 0 -8 9 -15 20 -15 11 0 20 -4 20 -10 0 -5 11 -10 25 -10 14 0 25 -4 25 -10 0 -5 16 -10 35 -10 19 0 35 -4 35 -10 0 -5 9 -10 20 -10 11 0 20 -7 20 -15 0 -10 11 -15 35 -15 19 0 35 -4 35 -10 0 -5 20 -10 45 -10 25 0 45 -4 45 -10 0 -5 25 -10 55 -10 30 0 55 5 55 10 0 6 9 10 21 10 21 0 49 21 49 37 0 5 9 15 20 23 18 13 20 26 20 147 0 82 -4 133 -10 133 -5 0 -10 25 -10 55 0 30 -4 55 -10 55 -5 0 -10 25 -10 55 0 30 -4 55 -10 55 -5 0 -10 5 -10 10 0 14 66 80 80 80 5 0 10 5 10 10 0 14 66 80 80 80 5 0 10 5 10 10 0 14 66 80 80 80 5 0 10 5 10 10 0 14 66 80 80 80 5 0 10 5 10 10 0 14 66 80 80 80 5 0 10 5 10 10 0 14 66 80 80 80 5 0 10 7 10 15 0 8 5 15 10 15 6 0 10 8 10 18 0 10 9 24 20 32 11 8 20 20 20 27 0 7 5 13 10 13 14 0 80 66 80 80 0 5 7 10 15 10 8 0 15 8 15 18 0 10 9 24 20 32 11 8 20 18 20 23 0 10 26 37 35 37 13 0 55 50 55 65 0 16 23 45 35 45 8 0 35 27 35 35 0 10 48 55 60 55 5 0 10 9 10 20 0 21 61 90 80 90 5 0 10 9 10 21 0 12 13 34 30 49 16 15 30 33 30 39 0 6 7 11 15 11 8 0 15 8 15 18 0 10 9 24 20 32 11 8 20 18 20 23 0 12 27 37 39 37 6 0 11 9 11 20 0 11 5 20 10 20 6 0 10 5 10 10 0 14 46 60 60 60 5 0 10 9 10 21 0 12 14 34 30 49 17 15 30 37 30 49 0 12 5 21 10 21 17 0 60 47 60 65 0 19 23 45 39 45 6 0 11 9 11 20 0 11 5 20 10 20 6 0 10 37 10 90 0 53 -4 90 -10 90 -5 0 -10 16 -10 35 0 24 -5 35 -15 35 -10 0 -15 11 -15 35 0 19 -4 35 -10 35 -5 0 -10 16 -10 35 0 19 -4 35 -10 35 -5 0 -10 14 -10 30 0 17 -4 30 -10 30 -5 0 -10 16 -10 35 0 24 -5 35 -15 35 -10 0 -15 11 -15 35 0 19 -4 35 -10 35 -5 0 -10 16 -10 35 0 19 -4 35 -10 35 -5 0 -10 9 -10 20 0 11 -4 20 -10 20 -5 0 -10 11 -10 25 0 14 -5 25 -10 25 -14 0 -80 66 -80 80 0 5 -5 10 -11 10 -6 0 -24 14 -39 30 -15 17 -37 30 -49 30 -12 0 -21 6 -21 15 0 8 -9 15 -20 15 -11 0 -20 5 -20 10 0 6 -11 10 -25 10 -14 0 -25 5 -25 10 0 6 -28 10 -65 10 -37 0 -65 4 -65 10 0 6 -16 10 -35 10 -31 0 -35 3 -35 25 0 14 -4 25 -10 25 -5 0 -10 9 -10 20 0 11 -4 20 -10 20 -5 0 -10 11 -10 25 0 16 -6 25 -15 25 -8 0 -15 9 -15 20 0 11 -4 20 -10 20 -5 0 -10 11 -10 25 0 14 -4 25 -10 25 -5 0 -10 9 -10 20 0 11 -4 20 -10 20 -5 0 -10 11 -10 25 0 16 -6 25 -15 25 -10 0 -15 11 -15 35 0 19 -4 35 -10 35 -5 0 -10 9 -10 20 0 11 -4 20 -10 20 -5 0 -10 11 -10 25 0 14 -4 25 -10 25 -5 0 -10 14 -10 30 0 20 -5 30 -15 30 -9 0 -15 9 -15 25 0 14 -4 25 -10 25 -5 0 -10 16 -10 35 0 19 -4 35 -10 35 -5 0 -10 7 -10 16 0 18 -23 44 -39 44 -6 0 -11 7 -11 15 0 10 -10 15 -30 15 -16 0 -30 5 -30 10 0 6 -20 10 -45 10 -25 0 -45 -4 -45 -10 0 -5 -11 -10 -25 -10 -16 0 -25 -6 -25 -15 0 -8 -9 -15 -20 -15 -11 0 -20 -4 -20 -10 0 -5 -6 -10 -13 -10 -7 0 -19 -9 -27 -20 -8 -11 -22 -20 -32 -20 -10 0 -18 -7 -18 -15 0 -8 -5 -15 -10 -15 -14 0 -80 -66 -80 -80 0 -5 -7 -10 -15 -10 -8 0 -15 -4 -15 -10 0 -5 -8 -10 -18 -10 -10 0 -24 -9 -32 -20 -8 -11 -20 -20 -27 -20 -7 0 -13 -5 -13 -10 0 -14 -66 -80 -80 -80 -5 0 -10 -9 -10 -21 0 -12 -13 -34 -30 -49 -16 -15 -30 -33 -30 -39 0 -6 -5 -11 -11 -11 -16 0 -39 -26 -39 -44 0 -9 -4 -16 -10 -16 -5 0 -10 -5 -10 -11 0 -14 -25 -39 -39 -39 -6 0 -11 -9 -11 -20 0 -11 -4 -20 -10 -20 -5 0 -10 -7 -10 -15 0 -8 -4 -15 -10 -15 -5 0 -10 -7 -10 -16 0 -18 -23 -44 -39 -44 -6 0 -11 -11 -11 -25 0 -14 -4 -25 -10 -25 -5 0 -10 -9 -10 -20 0 -11 -4 -20 -10 -20 -5 0 -10 -7 -10 -15 0 -8 -4 -15 -10 -15 -5 0 -10 -9 -10 -20 0 -11 -7 -20 -15 -20 -9 0 -15 -9 -15 -25 0 -14 -4 -25 -10 -25 -5 0 -10 -8 -10 -18 0 -10 -9 -24 -20 -32 -11 -8 -20 -20 -20 -27 0 -7 -11 -13 -25 -13 -14 0 -25 -4 -25 -10 0 -5 -16 -10 -35 -10 -31 0 -35 3 -35 25 0 14 -4 25 -10 25 -5 0 -10 9 -10 20 0 11 -4 20 -10 20 -5 0 -10 11 -10 25 0 14 -4 25 -10 25 -5 0 -10 9 -10 20 0 11 -7 20 -15 20 -9 0 -15 9 -15 25 0 14 -4 25 -10 25 -5 0 -10 14 -10 30 0 17 -4 30 -10 30 -5 0 -10 16 -10 35 0 19 -4 35 -10 35 -5 0 -10 11 -10 25 0 16 -6 25 -15 25 -10 0 -15 10 -15 30 0 17 -4 30 -10 30 -5 0 -10 16 -10 35 0 19 -4 35 -10 35 -5 0 -10 16 -10 35 0 19 -4 35 -10 35 -5 0 -10 16 -10 35 0 24 -5 35 -15 35 -8 0 -15 9 -15 20 0 11 -4 20 -10 20 -5 0 -10 16 -10 35 0 19 -4 35 -10 35 -5 0 -10 16 -10 35 0 19 -4 35 -10 35 -5 0 -10 14 -10 30 0 20 -5 30 -15 30 -10 0 -15 11 -15 35 0 19 -4 35 -10 35 -5 0 -10 16 -10 35 0 19 -4 35 -10 35 -5 0 -10 9 -10 20 0 11 -4 20 -10 20 -5 0 -10 16 -10 35 0 24 -5 35 -15 35 -9 0 -15 9 -15 25 0 14 -4 25 -10 25 -5 0 -10 14 -10 30 0 17 -4 30 -10 30 -5 0 -10 11 -10 25 0 14 -4 25 -10 25 -5 0 -10 9 -10 20 0 11 -7 20 -15 20 -10 0 -15 11 -15 35 0 19 -4 35 -10 35 -5 0 -10 11 -10 25 0 14 -4 25 -10 25 -5 0 -10 9 -10 20 0 11 -4 20 -10 20 -5 0 -10 11 -10 25 0 16 -6 25 -15 25 -8 0 -15 9 -15 20 0 11 -4 20 -10 20 -5 0 -10 11 -10 25 0 14 -4 25 -10 25 -5 0 -10 9 -10 20 0 11 -4 20 -10 20 -5 0 -10 11 -10 25 0 16 -6 25 -15 25 -8 0 -15 8 -15 18 0 10 -9 24 -20 32 -11 8 -20 25 -20 37 0 13 -4 23 -10 23 -5 0 -10 9 -10 20 0 11 -7 20 -15 20 -8 0 -15 7 -15 15 0 8 -4 15 -10 15 -5 0 -10 8 -10 18 0 10 -9 24 -20 32 -11 8 -20 25 -20 37 0 13 -5 23 -11 23 -16 0 -39 26 -39 45 0 18 -43 65 -60 65 -5 0 -10 9 -10 20 0 21 -61 90 -80 90 -5 0 -10 7 -10 15 0 8 -4 15 -10 15 -5 0 -10 8 -10 18 0 10 -9 24 -20 32 -11 8 -20 20 -20 27 0 7 -5 13 -10 13 -14 0 -80 66 -80 80 0 5 -7 10 -15 10 -8 0 -15 5 -15 10 0 6 -8 10 -18 10 -10 0 -24 9 -32 20 -8 11 -20 20 -27 20 -7 0 -13 5 -13 10 0 17 -47 60 -65 60 -16 0 -45 23 -45 35 0 13 -29 35 -47 35 -10 0 -25 9 -33 20 -8 11 -22 20 -32 20 -10 0 -18 7 -18 15 0 9 -9 15 -23 15 -12 0 -29 9 -37 20 -8 11 -25 20 -37 20 -13 0 -23 5 -23 10 0 6 -9 10 -20 10 -11 0 -20 7 -20 15 0 9 -9 15 -25 15 -14 0 -25 5 -25 10 0 6 -9 10 -20 10 -11 0 -20 5 -20 10 0 6 -11 10 -25 10 -14 0 -25 5 -25 10 0 6 -9 10 -20 10 -11 0 -20 7 -20 15 0 9 -9 15 -21 15 -32 0 -49 25 -49 69 0 23 -4 41 -10 41 -5 0 -10 20 -10 45 0 25 -4 45 -10 45 -5 0 -10 20 -10 45 0 33 -4 45 -15 45 -12 0 -15 13 -15 55 0 30 -4 55 -10 55 -5 0 -10 20 -10 45 0 25 -4 45 -10 45 -5 0 -10 20 -10 45 0 25 -4 45 -10 45 -5 0 -10 20 -10 45 0 33 -4 45 -15 45 -11 0 -15 12 -15 45 0 25 -4 45 -10 45 -5 0 -10 20 -10 45 0 25 -4 45 -10 45 -5 0 -10 20 -10 45 0 25 -4 45 -10 45 -5 0 -10 20 -10 45 0 33 -4 45 -15 45 -12 0 -15 13 -15 55 0 30 -4 55 -10 55 -5 0 -10 20 -10 45 0 25 -4 45 -10 45 -5 0 -10 20 -10 45 0 25 -4 45 -10 45 -7 0 -10 277 -10 810 0 533 3 810 10 810 6 0 10 11 10 25 0 14 5 25 10 25 6 0 10 9 10 20 0 11 5 20 10 20 6 0 10 11 10 25 0 16 6 25 15 25 10 0 15 11 15 35 0 19 5 35 10 35 6 0 10 9 10 20 0 11 5 20 10 20 6 0 10 11 10 25 0 14 5 25 10 25 6 0 10 14 10 30 0 20 5 30 15 30 9 0 15 9 15 25 0 14 5 25 10 25 6 0 10 9 10 20 0 11 5 20 10 20 6 0 10 16 10 35 0 19 5 35 10 35 6 0 10 11 10 25 0 16 6 25 15 25 8 0 15 9 15 20 0 11 5 20 10 20 6 0 10 16 10 35 0 19 5 35 10 35 6 0 10 9 10 20 0 11 5 20 10 20 6 0 10 11 10 25 0 16 6 25 15 25 10 0 15 11 15 35 0 19 5 35 10 35 6 0 10 32 10 75 0 43 -4 75 -10 75 -5 0 -10 7 -10 15 0 8 -6 15 -13 15 -7 0 -19 9 -27 20 -8 11 -22 20 -32 20 -10 0 -18 5 -18 10 0 7 -180 10 -520 10 -340 0 -520 -3 -520 -10 0 -5 -9 -10 -20 -10 -11 0 -20 -4 -20 -10 0 -5 -5 -10 -11 -10 -17 0 -39 -27 -39 -49 0 -12 -4 -21 -10 -21 -6 0 -10 -58 -10 -155 0 -97 -4 -155 -10 -155 -6 0 -10 -72 -10 -195 0 -167 -2 -195 -15 -195 -13 0 -15 -29 -15 -200 0 -127 -4 -200 -10 -200 -6 0 -10 -70 -10 -190 0 -120 -4 -190 -10 -190 -6 0 -10 -75 -10 -205 0 -130 -4 -205 -10 -205 -6 0 -10 -70 -10 -190 0 -162 -2 -190 -15 -190 -13 0 -15 -28 -15 -190 0 -120 -4 -190 -10 -190 -6 0 -10 -75 -10 -205 0 -130 -4 -205 -10 -205 -6 0 -10 -70 -10 -190 0 -120 -4 -190 -10 -190 -6 0 -10 -52 -10 -135 l0 -135 -170 0 c-107 0 -170 -4 -170 -10 0 -5 -11 -10 -25 -10 -14 0 -25 -6 -25 -13 0 -7 -9 -19 -20 -27 -11 -8 -20 -22 -20 -32 0 -10 -4 -18 -10 -18 -5 0 -10 -16 -10 -35 l0 -35 -201 0 c-218 0 -229 3 -229 55 0 24 -20 55 -35 55 -10 0 -35 28 -35 39 0 6 -9 11 -20 11 -11 0 -20 5 -20 10 0 6 -37 10 -90 10 -53 0 -90 -4 -90 -10 0 -6 -52 -10 -135 -10 -113 0 -135 -2 -135 -15 0 -12 -18 -15 -105 -15 -63 0 -105 -4 -105 -10 0 -6 -35 -10 -85 -10 -50 0 -85 -4 -85 -10 0 -6 -30 -10 -70 -10 -40 0 -70 -4 -70 -10 0 -6 -28 -10 -65 -10 -51 0 -65 -3 -65 -15 0 -12 -14 -15 -70 -15 -40 0 -70 -4 -70 -10 0 -5 -25 -10 -55 -10 -30 0 -55 -4 -55 -10 0 -5 -25 -10 -55 -10 -30 0 -55 -4 -55 -10 0 -6 -27 -10 -60 -10 -47 0 -60 -3 -60 -15 0 -11 -12 -15 -45 -15 -25 0 -45 -4 -45 -10 0 -5 -20 -10 -45 -10 -25 0 -45 -4 -45 -10 0 -5 -20 -10 -45 -10 -25 0 -45 -4 -45 -10 0 -5 -20 -10 -45 -10 -33 0 -45 -4 -45 -15 0 -11 -12 -15 -45 -15 -25 0 -45 -4 -45 -10 0 -5 -13 -10 -30 -10 -16 0 -30 -4 -30 -10 0 -5 -20 -10 -45 -10 -25 0 -45 5 -45 10 0 6 -7 10 -15 10 -9 0 -15 9 -15 23 0 12 -9 29 -20 37 -11 8 -20 22 -20 32 0 10 -4 18 -10 18 -5 0 -10 7 -10 15 0 8 -5 15 -10 15 -17 0 -60 47 -60 65 0 16 -23 45 -35 45 -12 0 -35 29 -35 45 0 15 -42 65 -55 65 -8 0 -35 27 -35 35 0 10 -48 55 -60 55 -5 0 -10 9 -10 20 0 21 -61 90 -80 90 -5 0 -10 5 -10 10 0 14 -66 80 -80 80 -5 0 -10 5 -10 10 0 14 -66 80 -80 80 -5 0 -10 5 -10 10 0 17 -47 60 -65 60 -16 0 -45 22 -45 35 0 8 -47 55 -55 55 -8 0 -35 27 -35 35 0 12 -29 35 -45 35 -15 0 -65 42 -65 55 0 10 -28 35 -39 35 -6 0 -11 5 -11 10 0 6 -7 10 -16 10 -18 0 -44 23 -44 39 0 6 -6 11 -13 11 -7 0 -19 9 -27 20 -8 11 -22 20 -32 20 -10 0 -18 5 -18 10 0 6 -7 10 -15 10 -8 0 -15 5 -15 11 0 16 -26 39 -44 39 -9 0 -16 5 -16 10 0 6 -5 10 -11 10 -14 0 -39 25 -39 39 0 6 -9 11 -20 11 -11 0 -20 5 -20 10 0 6 -7 10 -15 10 -8 0 -15 5 -15 10 0 6 -7 10 -16 10 -18 0 -44 23 -44 39 0 6 -9 11 -21 11 -39 0 -49 23 -49 114 0 51 4 86 10 86 6 0 10 37 10 90 0 53 4 90 10 90 6 0 10 33 10 80 0 64 3 80 15 80 12 0 15 15 15 75 0 43 4 75 10 75 6 0 10 33 10 80 0 47 4 80 10 80 6 0 10 37 10 90 0 53 4 90 10 90 6 0 10 33 10 80 0 64 3 80 15 80 12 0 15 16 15 80 0 47 4 80 10 80 6 0 10 32 10 75 0 43 4 75 10 75 6 0 10 30 10 70 0 40 4 70 10 70 6 0 10 9 10 20 0 11 7 20 15 20 10 0 15 11 15 35 0 19 5 35 10 35 6 0 10 11 10 25 0 14 5 25 10 25 6 0 10 9 10 20 0 11 5 20 10 20 6 0 10 16 10 35 0 24 5 35 15 35 8 0 15 9 15 20 0 11 5 20 10 20 6 0 10 11 10 25 0 14 5 25 10 25 6 0 10 16 10 35 0 19 5 35 10 35 6 0 10 9 10 20 0 11 7 20 15 20 9 0 15 9 15 25 0 14 5 25 10 25 6 0 10 14 10 30 0 17 5 30 10 30 6 0 10 11 10 25 0 14 5 25 10 25 6 0 10 9 10 20 0 11 7 20 15 20 9 0 15 9 15 25 0 14 5 25 10 25 6 0 10 16 10 35 0 19 5 35 10 35 6 0 10 9 10 20 0 11 5 20 10 20 6 0 10 16 10 35 0 24 5 35 15 35 12 0 15 13 15 55 0 42 -3 55 -15 55 -8 0 -15 9 -15 20 0 27 -43 70 -70 70 -11 0 -20 5 -20 10 0 7 -178 10 -515 10 -337 0 -515 -3 -515 -10z"/>
 </g>

</svg>