<!DOCTYPE svg PUBLIC "-//W3C//DTD SVG 20010904//EN" "http://www.w3.org/TR/2001/REC-SVG-20010904/DTD/svg10.dtd">
<svg version="1.0" xmlns="http://www.w3.org/2000/svg" width="480px" height="480px" viewBox="0 0 4800 4800" preserveAspectRatio="xMidYMid meet">
<g id="layer101" fill="#194f46" stroke="none">
 <path d="M2037 4528 c-49 -13 -107 -67 -107 -100 0 -28 -34 -78 -53 -78 -17 0 -85 -63 -153 -140 -68 -78 -140 -183 -182 -265 -17 -33 -59 -89 -94 -125 -69 -70 -105 -135 -115 -205 -4 -36 -10 -45 -25 -45 -64 0 -113 -25 -185 -94 -79 -76 -89 -102 -57 -151 20 -30 138 -111 177 -120 16 -4 44 -22 63 -40 l34 -32 -96 -94 c-279 -273 -407 -530 -383 -774 6 -68 5 -73 -19 -59 -46 30 -88 176 -116 409 -9 72 -27 173 -41 225 -35 130 -128 317 -202 405 -71 84 -183 163 -275 193 -67 22 -208 41 -208 28 0 -3 25 -36 55 -73 66 -81 146 -239 175 -343 11 -41 25 -136 30 -210 35 -469 240 -751 589 -811 60 -11 72 -17 126 -68 233 -217 559 -300 912 -232 96 19 284 24 413 12 230 -23 451 -95 611 -201 127 -83 154 -113 194 -220 20 -52 61 -141 90 -196 178 -332 416 -546 701 -629 101 -30 289 -43 386 -28 l56 10 77 -104 c42 -57 81 -106 86 -109 6 -4 7 32 3 95 -4 56 -4 101 -1 101 3 0 35 -41 72 -90 37 -50 69 -89 72 -86 2 2 -7 75 -22 162 l-25 159 30 78 c59 154 102 336 115 492 4 44 18 113 32 154 20 61 24 90 21 156 -3 70 -7 86 -30 117 -60 79 -200 113 -274 68 -38 -24 -71 -87 -80 -153 -6 -42 -12 -51 -55 -83 -63 -46 -135 -127 -163 -182 l-23 -45 -6 114 c-10 180 -50 369 -108 512 -24 61 -26 75 -19 128 11 78 28 127 55 164 106 142 97 312 -24 490 -12 17 -21 42 -21 56 0 58 138 150 285 189 203 54 315 149 315 269 0 42 -60 204 -116 311 -90 172 -188 278 -290 314 -22 7 -63 30 -89 51 -71 54 -141 87 -178 83 l-32 -3 1 -60 c3 -152 122 -277 204 -216 l29 21 55 -51 c65 -59 137 -164 160 -232 21 -63 20 -142 -3 -192 l-18 -41 -118 -18 c-169 -26 -300 -61 -378 -100 l-68 -34 -15 22 c-26 41 -52 130 -63 216 -11 91 -41 605 -43 732 -1 126 43 201 195 334 53 45 61 79 26 110 -18 16 -40 20 -141 22 -134 4 -160 0 -188 -28 -24 -24 -25 -58 -3 -105 17 -35 16 -36 -15 -103 -18 -37 -37 -89 -42 -117 -17 -86 -23 -373 -12 -517 l11 -136 -30 -89 c-34 -100 -79 -311 -79 -370 l0 -40 -77 22 c-307 89 -666 135 -896 115 -135 -12 -225 -30 -297 -61 l-49 -21 -73 37 c-41 20 -90 37 -110 38 l-35 2 -12 65 c-16 88 -86 294 -118 350 -14 25 -39 61 -55 82 l-28 36 24 20 c14 10 52 29 85 41 74 27 153 96 188 164 14 28 31 85 39 127 7 41 18 88 23 103 15 38 14 110 -1 130 -8 10 -31 17 -58 19 -34 2 -46 7 -48 21 -5 27 35 66 82 78 110 29 210 99 247 172 29 56 22 79 -26 93 -48 15 -126 16 -178 2z"/>
 </g>

</svg>