<!DOCTYPE svg PUBLIC "-//W3C//DTD SVG 20010904//EN" "http://www.w3.org/TR/2001/REC-SVG-20010904/DTD/svg10.dtd">
<svg version="1.0" xmlns="http://www.w3.org/2000/svg" width="420px" height="420px" viewBox="0 0 4200 4200" preserveAspectRatio="xMidYMid meet">
<g id="layer101" fill="#194f46" stroke="none">
 <path d="M1040 3811 c0 -18 -6 -21 -42 -21 -24 0 -59 -3 -79 -6 -31 -5 -38 -3 -43 13 -7 22 -28 21 -124 -6 -38 -11 -43 -15 -38 -34 4 -19 -3 -25 -67 -49 -61 -23 -73 -25 -80 -13 -10 18 -34 7 -105 -45 -36 -26 -41 -34 -31 -46 10 -13 3 -24 -41 -69 -46 -47 -56 -53 -74 -43 -17 9 -25 6 -54 -28 -19 -21 -41 -52 -49 -68 -14 -26 -13 -30 1 -38 13 -7 11 -18 -19 -77 -28 -55 -39 -68 -53 -64 -20 5 -31 -15 -51 -92 -14 -54 -14 -65 4 -65 18 0 18 -13 4 -96 -8 -47 -15 -63 -30 -67 -21 -6 -23 -26 -12 -115 5 -46 9 -53 25 -49 13 4 19 -2 24 -21 3 -15 9 -46 15 -69 12 -57 12 -63 -7 -63 -20 0 -14 -31 22 -107 22 -45 29 -52 47 -48 18 5 28 -5 60 -57 35 -57 37 -63 22 -74 -16 -12 -12 -19 36 -73 54 -61 67 -69 85 -51 15 15 119 -75 119 -103 0 -17 15 -30 68 -57 61 -32 69 -33 78 -18 8 15 14 15 77 -6 51 -17 68 -28 70 -43 4 -24 22 -30 112 -40 57 -5 60 -5 60 16 0 20 5 21 80 21 64 0 80 -3 80 -15 0 -18 26 -19 103 -4 48 10 57 15 57 33 0 17 14 28 66 50 63 28 68 28 80 12 12 -17 15 -16 61 10 76 44 92 58 82 75 -11 21 103 123 119 107 14 -14 44 11 91 77 26 37 29 45 16 52 -13 8 -10 18 20 73 26 51 39 65 57 65 19 0 26 11 47 74 23 68 24 74 8 86 -14 10 -16 22 -11 61 9 84 13 94 34 94 18 0 20 7 20 74 0 114 -9 166 -30 166 -13 0 -23 18 -39 68 -18 58 -19 68 -6 78 21 16 19 31 -15 102 -25 54 -32 62 -52 58 -19 -5 -29 4 -61 55 -31 48 -37 62 -27 74 10 12 1 26 -46 75 -51 54 -59 59 -73 46 -15 -13 -23 -10 -78 28 -51 35 -59 45 -51 60 12 21 17 17 -59 55 -71 35 -81 37 -97 16 -10 -13 -20 -12 -78 6 -51 16 -68 26 -68 39 0 22 -14 28 -95 36 -62 6 -65 6 -65 -15z m141 -367 c151 -44 292 -158 361 -289 56 -108 72 -174 72 -295 0 -90 -5 -117 -30 -190 -37 -107 -88 -184 -167 -256 -146 -131 -351 -183 -539 -135 -221 57 -388 221 -443 436 -19 76 -19 224 0 298 59 227 253 405 489 447 66 12 188 4 257 -16z"/>
 <path d="M914 3134 c-100 -36 -184 -156 -184 -264 0 -78 24 -141 76 -199 88 -98 224 -125 339 -66 214 110 208 420 -10 521 -59 28 -155 31 -221 8z"/>
 <path d="M3091 3770 c-211 -57 -382 -231 -436 -445 -48 -188 10 -404 149 -552 l58 -63 -226 0 -225 0 5 93 c5 84 4 96 -18 137 -48 89 -165 115 -238 53 -47 -39 -59 -73 -69 -196 -15 -180 -49 -299 -125 -443 -138 -259 -369 -447 -651 -529 -182 -52 -377 -54 -570 -5 -97 24 -277 111 -361 173 -93 68 -120 80 -174 75 -122 -12 -189 -152 -119 -249 23 -33 113 -100 215 -159 l69 -40 5 -604 c5 -595 5 -605 26 -633 12 -15 36 -37 55 -48 33 -19 55 -20 659 -23 344 -2 654 0 688 3 54 6 70 12 103 42 49 44 41 16 230 776 l154 617 237 0 238 0 0 -365 c0 -382 4 -428 46 -522 26 -61 103 -142 163 -172 48 -25 132 -47 214 -56 l57 -6 0 85 c0 78 -2 86 -19 86 -27 0 -78 46 -101 90 -33 64 -40 154 -40 512 l0 347 446 3 446 3 24 28 c45 53 37 92 -96 448 -67 177 -127 334 -135 349 -18 35 -82 92 -122 109 l-31 13 57 58 c228 232 226 613 -4 846 -121 123 -236 174 -405 180 -83 3 -120 0 -179 -16z m230 -254 c107 -25 182 -84 236 -189 24 -45 28 -63 28 -142 0 -77 -4 -98 -26 -146 -33 -69 -91 -129 -161 -166 -47 -25 -64 -28 -148 -28 -82 0 -103 4 -151 26 -119 56 -190 161 -197 294 -5 107 20 175 92 249 58 60 92 80 168 100 67 19 90 19 159 2z m-1436 -2108 c-3 -13 -50 -189 -103 -393 l-97 -370 -493 -3 -492 -2 0 395 0 395 595 0 595 0 -5 -22z"/>
 </g>

</svg>