<!DOCTYPE svg PUBLIC "-//W3C//DTD SVG 20010904//EN" "http://www.w3.org/TR/2001/REC-SVG-20010904/DTD/svg10.dtd">
<svg version="1.0" xmlns="http://www.w3.org/2000/svg" width="480px" height="480px" viewBox="0 0 4800 4800" preserveAspectRatio="xMidYMid meet">
<g id="layer101" fill="#194f46" stroke="none">
 <path d="M145 4281 c-54 -9 -91 -36 -120 -86 -33 -56 -34 -138 -3 -198 25 -47 64 -152 80 -212 6 -22 17 -55 24 -73 8 -18 14 -49 14 -70 0 -20 11 -61 25 -90 19 -42 25 -71 25 -125 0 -40 5 -92 11 -117 6 -25 13 -61 14 -80 1 -19 12 -60 23 -90 11 -30 31 -93 43 -140 40 -150 150 -326 230 -370 77 -42 79 -45 79 -120 0 -54 7 -87 35 -159 19 -49 35 -95 35 -101 0 -5 -17 -18 -37 -28 -34 -15 -38 -22 -38 -54 0 -31 -7 -42 -49 -79 -58 -51 -76 -90 -76 -161 0 -63 36 -147 97 -223 26 -34 43 -68 52 -107 17 -76 52 -113 126 -128 30 -6 59 -9 65 -5 6 3 25 -10 44 -29 31 -33 38 -36 92 -36 58 0 59 -1 79 -37 11 -20 36 -45 55 -55 47 -26 132 -19 264 22 137 41 171 40 237 -10 84 -63 152 -66 241 -10 47 28 51 29 78 15 54 -28 96 -17 183 46 51 37 75 36 123 -2 51 -41 94 -59 144 -59 48 0 129 30 174 64 33 25 34 25 51 6 24 -27 96 -60 129 -60 15 0 49 9 76 21 l49 21 53 -26 c66 -33 139 -34 226 -4 l63 23 29 -35 c75 -91 73 -90 143 -90 73 0 77 -4 77 -74 0 -54 21 -77 108 -117 82 -37 112 -64 112 -100 0 -46 17 -77 55 -96 l35 -19 -24 -49 c-45 -92 -56 -127 -56 -181 0 -60 17 -84 58 -84 48 0 92 18 163 67 56 38 79 47 117 49 26 1 73 5 105 9 54 7 63 5 127 -29 38 -20 83 -36 99 -36 17 0 60 16 96 36 81 45 94 69 69 133 l-17 45 34 25 c54 41 84 76 96 112 42 120 61 162 123 265 74 123 103 210 82 244 -6 10 -8 27 -5 39 6 23 -45 107 -91 150 -34 32 -90 43 -155 30 -47 -10 -61 -8 -115 11 -65 24 -147 91 -200 162 l-28 39 23 72 c14 41 23 97 24 131 0 49 -4 61 -24 77 -13 11 -39 19 -61 19 -34 0 -38 3 -48 39 -7 21 -12 69 -12 106 0 63 -2 69 -34 101 -19 19 -39 48 -45 65 -6 17 -22 44 -36 61 -14 16 -28 41 -32 56 -8 32 12 154 38 236 30 91 49 191 49 252 0 30 7 71 15 91 8 20 15 52 16 72 0 20 2 96 5 170 3 73 1 163 -5 200 -6 36 -13 113 -17 171 l-6 105 46 60 c48 63 55 89 32 121 -12 16 -26 19 -88 18 -84 0 -134 -14 -200 -56 -52 -33 -61 -59 -34 -101 19 -30 29 -226 16 -302 -6 -33 -14 -135 -19 -227 -5 -91 -13 -174 -18 -183 -13 -23 -103 -85 -124 -85 -9 0 -19 -6 -22 -14 -7 -17 -166 -96 -194 -96 -12 0 -35 -11 -51 -25 -35 -29 -59 -32 -66 -7 -2 9 -8 53 -12 97 -5 59 -15 96 -40 149 -19 39 -34 81 -34 94 0 13 -7 37 -16 53 -8 17 -13 37 -10 44 5 15 -17 155 -32 200 -16 45 -33 177 -26 201 3 12 1 31 -5 42 -9 17 0 39 54 134 36 62 65 123 65 135 0 28 -42 57 -70 48 -11 -3 -20 -11 -20 -16 0 -12 -47 -12 -55 1 -12 19 -71 10 -116 -18 -78 -50 -116 -106 -143 -210 -20 -80 -20 -124 0 -193 9 -30 16 -79 15 -109 -2 -65 18 -198 30 -206 11 -6 12 -48 2 -58 -10 -10 -14 -78 -5 -91 5 -5 5 -63 2 -128 l-5 -118 -34 25 c-18 14 -58 30 -88 36 -99 21 -196 -15 -338 -124 -44 -35 -86 -66 -92 -70 -8 -4 -35 10 -67 34 -138 104 -277 105 -352 3 -15 -21 -35 -44 -43 -50 -21 -18 -56 -16 -72 3 -40 49 -138 67 -206 39 -43 -18 -48 -13 -58 51 -3 24 -10 46 -16 49 -5 4 -9 15 -9 25 0 11 -8 24 -19 29 -10 6 -21 24 -24 41 -4 16 -13 30 -21 30 -7 0 -17 11 -20 25 -4 14 -17 31 -30 37 -30 13 -56 78 -56 137 0 23 9 77 19 119 11 43 22 97 26 122 4 25 23 77 41 115 40 82 50 136 59 311 6 119 5 131 -14 162 -23 35 -59 43 -81 17 -10 -12 -15 -12 -35 1 -29 19 -47 11 -113 -44 -47 -39 -52 -48 -51 -81 4 -75 -33 -164 -100 -244 -24 -29 -43 -63 -46 -85 -11 -64 -32 -118 -68 -175 -20 -30 -42 -75 -50 -99 -8 -23 -21 -55 -28 -70 -10 -22 -10 -34 0 -54 10 -23 9 -30 -7 -48 -36 -39 -43 -66 -48 -174 -3 -59 -7 -122 -10 -139 l-5 -33 -55 45 c-30 25 -71 54 -92 64 -66 34 -70 43 -107 257 -35 204 -60 294 -93 342 -11 15 -32 52 -47 82 -15 30 -47 75 -71 100 -23 25 -54 70 -67 100 l-24 55 48 85 c27 47 49 92 49 101 0 28 -35 50 -84 51 -31 0 -46 5 -46 14 0 29 -38 38 -115 25z"/>
 </g>

</svg>