<!DOCTYPE svg PUBLIC "-//W3C//DTD SVG 20010904//EN" "http://www.w3.org/TR/2001/REC-SVG-20010904/DTD/svg10.dtd">
<svg version="1.0" xmlns="http://www.w3.org/2000/svg" width="512px" height="512px" viewBox="0 0 5120 5120" preserveAspectRatio="xMidYMid meet">
<g id="layer101" fill="#b3b3b3" stroke="none">
 <path d="M2305 5113 c-551 -68 -978 -247 -1380 -579 -115 -94 -205 -184 -186 -184 23 0 409 130 631 212 312 116 625 253 950 415 l285 142 -135 -1 c-74 -1 -148 -3 -165 -5z"/>
 <path d="M2930 4964 c-196 -112 -653 -342 -870 -438 -482 -214 -1003 -400 -1493 -536 l-168 -46 -35 -58 c-64 -106 -116 -207 -111 -212 7 -8 291 63 537 132 847 239 1719 616 2478 1071 78 47 145 89 147 93 9 14 -247 91 -295 89 -14 0 -99 -43 -190 -95z"/>
 <path d="M3605 4739 c-963 -613 -2107 -1087 -3278 -1359 -115 -26 -211 -51 -214 -54 -4 -3 -21 -64 -39 -134 -22 -87 -28 -128 -20 -130 19 -4 395 75 611 129 1148 287 2165 727 3148 1363 103 66 187 124 187 127 0 7 -237 149 -247 148 -5 0 -71 -41 -148 -90z"/>
 <path d="M4078 4377 c-92 -62 -201 -134 -244 -160 -42 -26 -74 -50 -72 -53 17 -16 780 -134 870 -134 l29 0 -22 33 c-57 81 -153 192 -263 305 -66 67 -122 122 -125 121 -4 0 -81 -51 -173 -112z"/>
 <path d="M3251 3879 c-75 -41 -109 -64 -100 -69 45 -24 571 -138 899 -194 325 -56 874 -125 888 -112 3 3 -14 50 -37 104 l-43 98 -131 13 c-329 30 -674 82 -1047 158 -151 30 -284 57 -295 59 -11 2 -69 -23 -134 -57z"/>
 <path d="M2593 3551 c-68 -31 -123 -59 -123 -62 0 -6 260 -89 465 -148 566 -162 1187 -282 1765 -340 318 -32 390 -36 390 -20 0 18 -39 201 -44 206 -1 2 -75 10 -162 18 -676 63 -1359 188 -1980 360 -89 25 -167 45 -175 44 -8 -1 -69 -27 -136 -58z"/>
 <path d="M1915 3269 c-492 -188 -1123 -368 -1667 -475 l-248 -49 0 -187 c0 -103 5 -232 11 -288 l12 -100 1122 0 c1236 0 1135 -5 1135 60 0 54 50 222 93 313 24 50 67 123 95 160 l52 68 0 193 0 193 -42 12 c-24 7 -124 42 -223 76 -99 35 -187 66 -195 69 -8 3 -73 -17 -145 -45z"/>
 <path d="M2820 2911 l0 -149 41 -48 c84 -101 178 -334 195 -483 l7 -61 151 0 151 0 49 95 c27 53 80 134 118 181 l68 85 0 170 c0 127 -3 171 -12 173 -7 2 -87 21 -178 41 -91 20 -257 61 -369 91 -112 30 -208 54 -212 54 -5 0 -9 -67 -9 -149z"/>
 <path d="M3890 2670 l0 -143 44 -51 c55 -65 130 -181 162 -251 l25 -55 488 0 488 0 12 100 c6 56 11 167 11 249 l0 148 -162 12 c-231 17 -571 57 -793 92 -104 16 -209 32 -232 36 l-43 6 0 -143z"/>
 <path d="M96 1843 c32 -133 140 -385 233 -548 415 -723 1129 -1192 1960 -1286 159 -18 545 -7 694 20 320 58 602 159 855 307 459 268 831 673 1048 1140 42 92 125 310 138 367 l6 27 -411 0 -411 0 6 -22 c15 -50 18 -258 6 -354 -55 -441 -293 -884 -476 -884 -159 0 -369 346 -455 752 -18 82 -23 138 -23 273 -1 94 2 185 6 203 l8 33 -121 -3 -121 -3 -25 -84 c-69 -239 -200 -440 -307 -469 -140 -39 -310 182 -396 516 l-11 42 -1105 0 -1104 0 6 -27z"/>
 </g>

</svg>